<?xml version="1.0" standalone="no"?>
<!DOCTYPE svg PUBLIC "-//W3C//DTD SVG 20010904//EN"
 "http://www.w3.org/TR/2001/REC-SVG-20010904/DTD/svg10.dtd">
<svg version="1.0" xmlns="http://www.w3.org/2000/svg"
 width="256.000000pt" height="256.000000pt" viewBox="0 0 256.000000 256.000000"
 preserveAspectRatio="xMidYMid meet">

<g transform="translate(0.000000,256.000000) scale(0.100000,-0.100000)"
fill="#000000" stroke="none">
<path d="M770 2347 c-99 -22 -194 -94 -239 -183 -12 -22 -40 -113 -64 -202
l-42 -162 -120 0 c-94 0 -128 -4 -155 -18 -51 -25 -72 -72 -68 -154 4 -84 26
-117 91 -138 35 -11 45 -19 41 -30 -45 -104 -47 -120 -52 -385 -5 -290 2 -346
48 -398 27 -32 28 -35 32 -177 2 -80 8 -153 12 -162 8 -17 -1 -18 -107 -18
-92 0 -119 -3 -131 -16 -20 -19 -20 -29 0 -48 14 -14 142 -16 1264 -16 1122 0
1250 2 1264 16 20 19 20 29 0 48 -12 13 -39 16 -131 16 -106 0 -115 1 -107 17
4 10 9 83 12 163 3 134 5 147 27 170 48 53 50 62 53 315 4 256 -6 369 -39 444
-11 24 -18 45 -17 45 2 1 23 8 47 16 67 23 86 55 86 150 0 133 -35 158 -225
159 l-115 1 -39 148 c-21 81 -51 175 -67 209 -36 76 -108 143 -187 175 -56 22
-63 23 -537 25 -348 1 -495 -1 -535 -10z m1041 -82 c57 -20 112 -65 144 -118
13 -23 47 -128 75 -232 46 -171 82 -263 110 -280 20 -13 9 -27 -42 -50 -32
-15 -71 -25 -99 -25 -44 0 -46 1 -57 38 -40 130 -208 194 -334 125 -51 -28
-101 -88 -114 -136 l-6 -27 -480 0 -480 0 -59 26 c-33 15 -59 28 -59 29 0 2
15 25 33 52 25 37 45 95 85 243 56 207 81 262 143 312 71 57 71 57 605 58 414
0 497 -2 535 -15z m-1428 -558 c-4 -7 -30 -43 -58 -80 -49 -65 -51 -67 -95
-67 -26 0 -51 5 -58 12 -13 13 -17 130 -5 141 3 4 55 7 115 7 87 0 107 -3 101
-13z m2006 -1 c7 -9 11 -40 9 -78 l-3 -63 -55 -3 -56 -3 -34 48 c-19 26 -45
63 -58 81 l-23 32 104 0 c78 0 108 -4 116 -14z m-594 -46 c27 -13 49 -34 64
-60 l22 -40 -161 0 -161 0 15 28 c44 85 134 114 221 72z m-1359 -142 l69 -33
780 0 780 0 67 32 67 32 26 -34 c36 -47 72 -123 80 -167 8 -44 28 -36 -200
-73 -180 -29 -213 -44 -244 -109 -34 -69 -23 -133 26 -155 15 -7 100 -11 228
-11 l205 0 0 -115 c0 -84 -4 -124 -15 -145 -33 -63 19 -60 -1025 -60 -1044 0
-992 -3 -1025 60 -11 21 -15 61 -15 145 l0 115 205 0 c128 0 213 4 228 11 28
13 47 48 47 87 0 41 -41 114 -75 134 -16 9 -100 28 -185 43 -217 36 -210 34
-210 56 0 45 88 219 111 219 4 0 38 -15 75 -32z m174 -357 c16 -11 26 -30 28
-49 l3 -32 -200 0 -201 0 0 78 0 79 173 -29 c113 -19 181 -35 197 -47z m1710
-1 l0 -80 -201 0 -200 0 3 32 c5 52 36 65 223 97 94 16 171 29 173 30 1 0 2
-35 2 -79z m-80 -669 c0 -114 -1 -119 -26 -145 -24 -23 -35 -26 -94 -26 -52 0
-73 5 -91 19 -22 18 -24 27 -27 140 l-4 121 39 0 c27 0 42 -6 51 -20 16 -25
47 -26 64 -1 8 11 29 21 48 24 19 2 36 5 38 5 1 1 2 -51 2 -117z m-1832 89 c7
-11 21 -20 32 -20 11 0 25 9 32 20 9 14 24 20 50 20 l38 0 0 -114 c0 -109 -1
-114 -26 -140 -24 -23 -35 -26 -94 -26 -52 0 -73 5 -91 19 -22 18 -24 27 -27
140 l-4 121 39 0 c27 0 42 -6 51 -20z m1514 -102 c3 -68 8 -131 12 -140 8 -17
-27 -18 -654 -18 -627 0 -662 1 -654 18 4 9 9 72 12 140 l4 122 638 0 638 0 4
-122z"/>
<path d="M1178 2109 c-24 -13 -23 -46 1 -59 28 -14 194 -13 209 2 18 18 14 46
-7 58 -25 13 -181 13 -203 -1z"/>
<path d="M856 1144 c-33 -32 -14 -144 24 -144 23 0 40 34 40 80 0 46 -17 80
-40 80 -5 0 -16 -7 -24 -16z"/>
<path d="M1056 1144 c-33 -32 -14 -144 24 -144 23 0 40 34 40 80 0 46 -17 80
-40 80 -5 0 -16 -7 -24 -16z"/>
<path d="M1256 1144 c-33 -32 -14 -144 24 -144 23 0 40 34 40 80 0 46 -17 80
-40 80 -5 0 -16 -7 -24 -16z"/>
<path d="M1456 1144 c-33 -32 -14 -144 24 -144 23 0 40 34 40 80 0 46 -17 80
-40 80 -5 0 -16 -7 -24 -16z"/>
<path d="M1656 1144 c-33 -32 -14 -144 24 -144 23 0 40 34 40 80 0 46 -17 80
-40 80 -5 0 -16 -7 -24 -16z"/>
<path d="M332 908 c-15 -15 -15 -41 0 -56 13 -13 183 -17 212 -6 21 8 21 60 0
68 -29 11 -199 7 -212 -6z"/>
<path d="M652 908 c-15 -15 -15 -41 0 -56 9 -9 161 -12 624 -12 337 0 619 3
628 6 21 8 21 60 0 68 -9 3 -291 6 -628 6 -463 0 -615 -3 -624 -12z"/>
<path d="M2012 908 c-7 -7 -12 -19 -12 -28 0 -32 23 -40 116 -40 51 0 99 3
108 6 21 8 21 60 0 68 -29 11 -199 7 -212 -6z"/>
</g>
</svg>
